<svg width="216" height="398" viewBox="0 0 216 398" fill="none" xmlns="http://www.w3.org/2000/svg">
    <g id="logo">
        <g id="b">
            <g id="bTop">
                <path id="topTop" d="M7.99998 8H129C170.421 8 204 41.5786 204 83V83" stroke="#06FBDD" stroke-width="15" stroke-linecap="round"/>
                <path id="i" d="M7.99998 30L7.99998 180" stroke="#06FBDD" stroke-width="15" stroke-linecap="round"/>
                <path id="z" d="M7.99998 205L204 105" stroke="#06FBDD" stroke-width="10" stroke-linecap="round"/>
            </g>
            <circle id="bBottom" cx="108" cy="290" r="100" stroke="#06FBDD" stroke-width="15"/>
        </g>
        <g id="l">
            <path id="lTop" fill-rule="evenodd" clip-rule="evenodd" d="M4.28948 350.649C2.43854 352.698 2.5993 355.86 4.64856 357.711C6.69782 359.561 9.85956 359.401 11.7105 357.351L14.6723 354.072C12.6255 351.32 10.7016 348.472 8.90851 345.535L4.28948 350.649ZM12.4118 341.656C13.8998 344.171 15.4874 346.621 17.1692 348.999C15.4874 346.621 13.8998 344.171 12.4118 341.656L12.4118 341.656ZM153.493 185.459L200.289 133.649C202.14 131.599 205.302 131.439 207.351 133.289C209.401 135.14 209.561 138.302 207.711 140.351L162.571 190.327C159.63 188.571 156.601 186.946 153.493 185.459ZM135.782 205.068L26.6159 325.93C28.1838 329.081 29.9361 332.124 31.8586 335.045L145.384 209.356C142.287 207.742 139.082 206.308 135.782 205.068Z" fill="black"/>
            <path id="lBottom" fill-rule="evenodd" clip-rule="evenodd" d="M33.3523 373.738C30.6042 371.466 27.9658 369.065 25.4465 366.545L5.72771 376.606C3.26792 377.86 2.2912 380.872 3.54615 383.332C4.8011 385.791 7.81249 386.768 10.2723 385.513L33.3523 373.738ZM188.755 294.454L58.3012 361.01C55.1301 359.004 52.0968 356.801 49.2186 354.417L184.211 285.546C186.671 284.291 189.682 285.268 190.937 287.728C192.192 290.187 191.215 293.199 188.755 294.454Z" fill="black"/>
        </g>
    </g>
</svg>
